<?xml version="1.0" encoding="UTF-8"?>
<svg version="1.1" xmlns="http://www.w3.org/2000/svg" width="512" height="512">
<path d="M0 0 C0.68771484 -0.02900391 1.37542969 -0.05800781 2.08398438 -0.08789062 C15.21638051 -0.24380035 27.76975564 7.22208016 39.4375 12.5625 C42.98460893 14.17683318 46.53334008 15.78758607 50.08203125 17.3984375 C50.97900223 17.806315 51.87597321 18.2141925 52.80012512 18.63442993 C58.97662513 21.4384894 65.17385646 24.19161144 71.38671875 26.9140625 C72.62840317 27.45951721 72.62840317 27.45951721 73.89517212 28.01599121 C78.67346838 30.11505393 78.67346838 30.11505393 83.45800781 32.1998291 C85.63510801 33.14487146 87.80806628 34.09890657 89.98046875 35.0546875 C90.61514572 35.32689117 91.24982269 35.59909485 91.9037323 35.87954712 C97.86273416 38.51945424 101.89471252 41.36422536 104.6875 47.3125 C105.29851562 48.5809375 105.29851562 48.5809375 105.921875 49.875 C108.88075064 56.97630154 109.20026248 64.97945854 106.375 72.1875 C103.92623219 77.05017771 100.32596695 80.0803302 95.21875 81.9375 C88.45717037 83.04899254 83.06921456 82.08388148 76.73828125 79.80859375 C75.96865555 79.54211533 75.19902985 79.2756369 74.40608215 79.00108337 C63.98861214 75.35102249 53.69589354 71.33390468 43.41577148 67.31616211 C40.79572971 66.29445247 38.17003719 65.2886343 35.54296875 64.28515625 C34.75029099 63.9707106 33.95761322 63.65626495 33.14091492 63.33229065 C27.62171469 61.1944482 27.62171469 61.1944482 21.9375 62.3125 C19.7036544 65.12098217 19.7036544 65.12098217 19.75 68.25 C20.58498816 71.3163654 20.58498816 71.3163654 22.53442383 72.29980469 C23.578927 72.73147949 23.578927 72.73147949 24.64453125 73.171875 C25.45913818 73.51081787 26.27374512 73.84976074 27.11303711 74.19897461 C32.6627738 76.38692076 38.22856941 78.52577797 43.8125 80.625 C45.10087363 81.11104993 46.38920333 81.59721634 47.67749023 82.08349609 C51.42900555 83.49804684 55.18291079 84.90612778 58.9375 86.3125 C60.48896729 86.89378662 60.48896729 86.89378662 62.07177734 87.48681641 C64.71311755 88.47420366 67.35594525 89.45740815 70 90.4375 C70.75974121 90.72020752 71.51948242 91.00291504 72.30224609 91.29418945 C81.67019329 94.74342551 92.64012571 96.64172844 102.125 92.5 C104.93581158 91.01534201 107.4527158 89.30032736 109.9375 87.3125 C110.5975 87.3125 111.2575 87.3125 111.9375 87.3125 C112.2159375 86.74015625 112.494375 86.1678125 112.78125 85.578125 C114.29444517 82.61308041 116.00949298 79.7775849 117.71875 76.921875 C119.14927502 74.18442045 119.14927502 74.18442045 119.51855469 70.36206055 C120.05224609 68.21389771 120.05224609 68.21389771 120.9375 66.3125 C123.75825226 64.66976694 125.79761545 63.80782116 128.859375 62.91015625 C130.60101073 62.33509875 132.34254112 61.75972216 134.08398438 61.18408203 C135.02814209 60.88495911 135.9722998 60.58583618 136.94506836 60.27764893 C141.16204256 58.91754831 145.33063101 57.42997853 149.50582886 55.94741821 C152.96718998 54.71891947 156.43320205 53.50449466 159.90087891 52.29394531 C161.0917511 51.87810181 162.28262329 51.4622583 163.50958252 51.03381348 C164.72329529 50.61015503 165.93700806 50.18649658 167.1875 49.75 C188.17419908 42.42765367 188.17419908 42.42765367 209.0859375 34.89453125 C209.99682129 34.56210922 210.90770508 34.22968719 211.84619141 33.88719177 C216.01896898 32.36362041 220.18723848 30.82953822 224.34863281 29.27514648 C225.80777405 28.74026235 227.26707369 28.20581002 228.7265625 27.671875 C229.96100098 27.21264648 231.19543945 26.75341797 232.46728516 26.28027344 C237.59212345 24.85105865 241.37187076 24.48363746 246.125 27 C249.96429699 30.1567553 253.33538935 33.19455944 253.9375 38.3125 C254.32851219 43.59116459 254.02581634 46.95252399 250.9375 51.3125 C244.14584119 56.951571 236.34531832 60.84706383 228.45007324 64.67852783 C225.10048692 66.30425663 221.76424695 67.95705914 218.42578125 69.60546875 C217.76951752 69.92854004 217.11325378 70.25161133 216.43710327 70.58447266 C211.3057256 73.11500174 206.23289276 75.74050414 201.1875 78.4375 C192.72091916 82.95168791 184.14117447 87.22566327 175.54980469 91.49658203 C169.13633351 94.69203623 162.7626125 97.94572982 156.4375 101.3125 C147.89112986 105.861615 139.23650863 110.18007193 130.56616211 114.48730469 C123.99541783 117.75938942 117.47833567 121.11165972 111 124.5625 C108.73609188 125.74910345 106.47040029 126.9322275 104.20410156 128.11425781 C102.65456266 128.93342379 101.11248586 129.76682098 99.57714844 130.61230469 C85.01573351 138.61366873 73.67070171 140.98864286 57.40625 136.3125 C45.94466015 132.88735608 34.76733637 128.60940445 23.5625 124.4375 C21.44029668 123.65182356 19.31790158 122.86666493 17.1953125 122.08203125 C16.15402695 121.69645554 15.11274139 121.31087982 14.03990173 120.91362 C11.96796388 120.14750212 9.89518669 119.38365009 7.82154846 118.62214661 C3.0317906 116.85801555 -1.73166185 115.05766438 -6.45727539 113.12768555 C-18.29654942 108.26547387 -18.29654942 108.26547387 -30.75 109.875 C-31.98073242 110.20854492 -31.98073242 110.20854492 -33.23632812 110.54882812 C-35.19285973 111.08658827 -37.13072687 111.69165018 -39.0625 112.3125 C-41.05435656 107.13625793 -42.84609581 101.95908549 -44.39086914 96.63061523 C-44.60267319 95.90917328 -44.81447723 95.18773132 -45.03269958 94.44442749 C-45.72388955 92.08747943 -46.41081416 89.72931213 -47.09765625 87.37109375 C-47.58156551 85.71770322 -48.06573639 84.06438925 -48.55015564 82.41114807 C-49.81954959 78.07623132 -51.0852882 73.74025559 -52.35028076 69.40405273 C-53.63550107 65.00111256 -54.92440914 60.5992523 -56.21289062 56.19726562 C-58.09825041 49.7537036 -59.98250904 43.30982167 -61.86352539 36.86499023 C-62.05733795 36.20142014 -62.25115051 35.53785004 -62.45083618 34.85417175 C-62.98957228 33.00738906 -63.52607359 31.1599549 -64.0625 29.3125 C-64.43785385 28.08422989 -64.8132077 26.85595978 -65.19993591 25.59046936 C-66.0625 22.3125 -66.0625 22.3125 -66.0625 18.3125 C-58.60727795 15.90589252 -51.15068184 13.50358031 -43.69311523 11.10424805 C-41.15623416 10.28783654 -38.61988357 9.46982912 -36.08374023 8.65112305 C-32.43816474 7.47446343 -28.79146685 6.30134252 -25.14453125 5.12890625 C-24.01102737 4.76221329 -22.8775235 4.39552032 -21.70967102 4.01771545 C-20.64894882 3.6774382 -19.58822662 3.33716095 -18.49536133 2.98657227 C-17.56492508 2.6867897 -16.63448883 2.38700714 -15.67585754 2.07814026 C-10.43766348 0.54349673 -5.44338842 0.07362563 0 0 Z " fill="#26266C" transform="translate(147.0625,361.6875)"/>
<path d="M0 0 C1.23556641 -0.00128906 2.47113281 -0.00257812 3.74414062 -0.00390625 C5.68256836 0.00189453 5.68256836 0.00189453 7.66015625 0.0078125 C8.94857422 0.00394531 10.23699219 0.00007813 11.56445312 -0.00390625 C12.80130859 -0.00261719 14.03816406 -0.00132813 15.3125 0 C16.44550537 0.00112793 17.57851074 0.00225586 18.74584961 0.00341797 C21.26162725 0.11277269 23.32937294 0.39703589 25.72265625 1.1328125 C26.56374724 4.38085537 27.39416281 7.63153554 28.22265625 10.8828125 C28.46113281 11.80320312 28.69960938 12.72359375 28.9453125 13.671875 C29.17089844 14.56132813 29.39648438 15.45078125 29.62890625 16.3671875 C29.83837891 17.18413086 30.04785156 18.00107422 30.26367188 18.84277344 C30.72265625 21.1328125 30.72265625 21.1328125 30.72265625 25.1328125 C31.25890625 25.19597656 31.79515625 25.25914062 32.34765625 25.32421875 C41.3122841 26.72494185 51.02508427 30.41794373 58.65478516 35.39257812 C60.76081773 36.40584419 60.76081773 36.40584419 62.94921875 35.2265625 C63.74070312 34.700625 64.5321875 34.1746875 65.34765625 33.6328125 C66.2190625 33.0759375 67.09046875 32.5190625 67.98828125 31.9453125 C69.34179688 31.048125 69.34179688 31.048125 70.72265625 30.1328125 C72.50473346 28.95154989 74.2960791 27.78411624 76.09765625 26.6328125 C76.88914062 26.106875 77.680625 25.5809375 78.49609375 25.0390625 C80.72265625 24.1328125 80.72265625 24.1328125 82.84301758 24.8359375 C85.56864005 26.71650726 87.99303683 28.8802415 90.41015625 31.1328125 C91.19265747 31.86105225 91.19265747 31.86105225 91.9909668 32.60400391 C95.4167609 35.82945 98.77979093 39.10957848 102.03515625 42.5078125 C102.77378906 43.27867187 103.51242187 44.04953125 104.2734375 44.84375 C105.72265625 47.1328125 105.72265625 47.1328125 105.7734375 49.421875 C103.95289982 54.11872685 100.9849838 58.11691026 98.140625 62.25 C95.44574736 66.19582427 95.44574736 66.19582427 94.7421875 70.7890625 C95.8742602 73.49521238 97.13569366 76.0535498 98.53515625 78.6328125 C100.92400374 83.14259936 102.23076081 87.15247659 103.28515625 92.1328125 C104.41477431 96.07706221 104.88721722 97.6462642 108.47265625 99.734375 C111.87642753 100.78601188 115.21878654 101.49645948 118.72265625 102.1328125 C120.83187561 102.69760347 122.93667048 103.27936193 125.03515625 103.8828125 C126.59706298 104.30169761 128.15932739 104.71926659 129.72265625 105.1328125 C130.57176346 111.0091735 130.87622815 116.69938176 130.84765625 122.6328125 C130.85152344 123.43589844 130.85539063 124.23898438 130.859375 125.06640625 C130.85109544 130.17489606 130.45327105 135.0764942 129.72265625 140.1328125 C126.47461338 140.97390349 123.22393321 141.80431906 119.97265625 142.6328125 C119.05226563 142.87128906 118.131875 143.10976562 117.18359375 143.35546875 C116.29414063 143.58105469 115.4046875 143.80664062 114.48828125 144.0390625 C113.67133789 144.24853516 112.85439453 144.45800781 112.01269531 144.67382812 C109.72265625 145.1328125 109.72265625 145.1328125 105.72265625 145.1328125 C105.59890625 145.8134375 105.47515625 146.4940625 105.34765625 147.1953125 C103.74948504 154.7067172 101.05915041 160.95787838 97.328125 167.61132812 C95.87521067 170.29466252 94.73810307 172.48919501 94.6640625 175.57421875 C96.6367921 180.34225523 99.57119977 184.58997771 102.39257812 188.89453125 C105.8331423 194.42488334 105.8331423 194.42488334 105.30078125 197.8359375 C99.60172942 206.13059709 91.39144741 214.870607 82.72265625 220.1328125 C79.61561254 219.70966652 77.4240406 218.4749575 74.82421875 216.77734375 C74.0971875 216.32037109 73.37015625 215.86339844 72.62109375 215.39257812 C71.10567295 214.42786437 69.59776619 213.45124431 68.09765625 212.46289062 C63.71478834 209.6388314 63.71478834 209.6388314 58.671875 209.61328125 C57.69863281 210.11472656 56.72539062 210.61617187 55.72265625 211.1328125 C54.46864311 211.69054495 53.21194382 212.24226307 51.953125 212.7890625 C50.6053269 213.4033347 49.25767467 214.01792701 47.91015625 214.6328125 C42.22424963 217.1837621 36.91184934 219.13812075 30.72265625 220.1328125 C30.53703125 221.60621094 30.53703125 221.60621094 30.34765625 223.109375 C29.74580495 227.31597648 28.76853887 231.39249176 27.72265625 235.5078125 C27.54476562 236.23097656 27.366875 236.95414063 27.18359375 237.69921875 C25.84941847 243.00605028 25.84941847 243.00605028 24.72265625 244.1328125 C19.04582808 245.20476676 13.48704669 245.2836232 7.72265625 245.2578125 C6.85898437 245.26167969 5.9953125 245.26554688 5.10546875 245.26953125 C0.20422162 245.26208255 -4.44552403 244.95999903 -9.27734375 244.1328125 C-9.78394531 242.28816406 -9.78394531 242.28816406 -10.30078125 240.40625 C-10.75121864 238.77341448 -11.20174413 237.14060326 -11.65234375 235.5078125 C-11.8740625 234.69957031 -12.09578125 233.89132812 -12.32421875 233.05859375 C-12.76328042 231.47022357 -13.21403594 229.88503483 -13.67700195 228.3034668 C-14.27734375 226.1328125 -14.27734375 226.1328125 -14.90625 222.73828125 C-16.4848863 219.73842252 -17.03371655 219.53968933 -20.09375 218.41015625 C-21.66940246 217.94153404 -23.25203206 217.49591969 -24.83984375 217.0703125 C-30.90200244 215.27919296 -36.25599266 213.48051169 -41.55078125 209.91796875 C-43.87915393 208.85913864 -44.86826876 209.35149831 -47.27734375 210.1328125 C-48.62753891 210.85757942 -49.95006884 211.63542487 -51.24609375 212.453125 C-51.98214844 212.90558594 -52.71820313 213.35804688 -53.4765625 213.82421875 C-55.01393348 214.78213921 -56.54779196 215.74571943 -58.078125 216.71484375 C-59.18220703 217.38966797 -59.18220703 217.38966797 -60.30859375 218.078125 C-60.97439453 218.49594238 -61.64019531 218.91375977 -62.32617188 219.34423828 C-64.78168435 220.33664385 -65.84098142 220.09892411 -68.27734375 219.1328125 C-70.25812687 217.55864175 -72.07242567 215.99115485 -73.90234375 214.2578125 C-74.68206543 213.5321106 -74.68206543 213.5321106 -75.47753906 212.79174805 C-80.71708703 207.84638651 -85.53697124 202.55487575 -90.27734375 197.1328125 C-89.2037643 193.79566191 -87.7177384 191.2806063 -85.61328125 188.5234375 C-80.04213489 181.37762596 -80.04213489 181.37762596 -78.54931641 172.82617188 C-80.08304028 168.1658953 -82.57733697 164.06521672 -85.18896484 159.93603516 C-87.96832516 155.33119996 -89.27734375 150.48715969 -89.27734375 145.1328125 C-90.42332031 145.00648438 -91.56929687 144.88015625 -92.75 144.75 C-97.14993127 144.19722045 -101.40971759 143.30901758 -105.71484375 142.2578125 C-106.43349609 142.09667969 -107.15214844 141.93554688 -107.89257812 141.76953125 C-109.9609375 141.265625 -109.9609375 141.265625 -113.27734375 140.1328125 C-114.97837862 135.02970789 -114.50265829 129.59520609 -114.51757812 124.25390625 C-114.52730961 122.14022853 -114.55835845 120.02751321 -114.58984375 117.9140625 C-114.59637184 116.57031826 -114.60162307 115.22656709 -114.60546875 113.8828125 C-114.6194873 112.04976562 -114.6194873 112.04976562 -114.63378906 110.1796875 C-114.27734375 107.1328125 -114.27734375 107.1328125 -113.04418945 105.29760742 C-110.93827803 103.90928306 -109.13340928 103.33345325 -106.6796875 102.74609375 C-105.79603516 102.53017578 -104.91238281 102.31425781 -104.00195312 102.09179688 C-103.08220703 101.87845703 -102.16246094 101.66511719 -101.21484375 101.4453125 C-100.29123047 101.22037109 -99.36761719 100.99542969 -98.41601562 100.76367188 C-91.6298561 99.1328125 -91.6298561 99.1328125 -89.27734375 99.1328125 C-89.20257813 98.57335937 -89.1278125 98.01390625 -89.05078125 97.4375 C-87.63166872 88.78369613 -84.47858377 79.45387793 -79.22265625 72.359375 C-77.96106059 69.25577166 -77.96106059 69.25577166 -79.16674805 66.7890625 C-80.69262423 64.02084577 -82.34655532 61.3943717 -84.08984375 58.7578125 C-84.67572266 57.83097656 -85.26160156 56.90414062 -85.86523438 55.94921875 C-87.31506041 53.66250127 -88.78566217 51.39235991 -90.27734375 49.1328125 C-83.74867537 39.04039672 -75.72390974 31.44286544 -66.27734375 24.1328125 C-64.67317708 25.0078125 -63.06901042 25.8828125 -61.46484375 26.7578125 C-60.45421875 27.29019531 -59.44359375 27.82257813 -58.40234375 28.37109375 C-55.27734375 30.1328125 -55.27734375 30.1328125 -52.58984375 32.11328125 C-49.75706223 34.09032668 -47.65462296 35.35791952 -44.27734375 36.1328125 C-39.79559927 34.75102754 -36.01454694 32.50571309 -32.02929688 30.10595703 C-27.07604549 27.35461087 -20.9668051 25.1328125 -15.27734375 25.1328125 C-14.87902344 23.28816406 -14.87902344 23.28816406 -14.47265625 21.40625 C-14.11605684 19.77340005 -13.75927642 18.14058963 -13.40234375 16.5078125 C-13.22832031 15.69957031 -13.05429688 14.89132813 -12.875 14.05859375 C-10.84639786 4.817184 -10.84639786 4.817184 -9.27734375 1.1328125 C-5.96691121 0.02933499 -3.48515121 0.003473 0 0 Z M-43.27734375 66.1328125 C-43.90769531 66.64972656 -44.53804687 67.16664063 -45.1875 67.69921875 C-59.31140875 80.53621098 -67.22639972 100.98778913 -68.2734375 119.65625 C-68.29942934 142.78898708 -59.47084008 161.89203588 -43.27734375 178.1328125 C-42.63152344 178.80183594 -41.98570312 179.47085938 -41.3203125 180.16015625 C-27.56774119 193.37341104 -7.664777 198.52504912 10.90234375 198.34765625 C30.81082479 197.22805865 49.95803493 188.59924839 63.72265625 174.1328125 C74.85302237 161.40977886 82.68993539 145.1883539 83.72265625 128.1328125 C83.77550781 127.27558594 83.82835937 126.41835937 83.8828125 125.53515625 C84.50563885 105.41515732 77.81288136 87.33436424 64.72265625 72.1328125 C64.03558594 71.33359375 63.34851563 70.534375 62.640625 69.7109375 C51.0682818 57.25832329 34.11414216 48.24147236 17.05737305 46.92749023 C-6.41021335 46.12393246 -24.97012216 51.03630094 -43.27734375 66.1328125 Z " fill="#26266C" transform="translate(261.27734375,106.8671875)"/>
<path d="M0 0 C7.55791919 24.8808525 14.89795961 49.82430623 22.17557144 74.78829956 C22.86855394 77.16538853 23.56175632 79.54241331 24.25497437 81.91943359 C26.61643978 90.01847014 28.97289092 98.11892819 31.32082272 106.22189903 C32.52475329 110.37341329 33.74157497 114.52094008 34.96582031 118.66650391 C35.52158486 120.56540028 36.07725761 122.46432353 36.6328125 124.36328125 C36.88022186 125.18966599 37.12763123 126.01605072 37.38253784 126.86747742 C38.48525678 130.66217582 39.29921969 134.03558598 39 138 C34.25200912 139.43289555 29.50144091 140.85677249 24.74829102 142.27246094 C23.13264708 142.75503274 21.51772693 143.24003484 19.90356445 143.72753906 C17.57951169 144.42897784 15.25297219 145.12155469 12.92578125 145.8125 C12.20787918 146.03123779 11.48997711 146.24997559 10.75032043 146.4753418 C7.07393441 147.55723204 3.83855081 148.26179375 0 148 C-8.52123365 119.94789303 -16.75140685 91.81235578 -24.93659878 63.66079712 C-25.82286374 60.61294048 -26.70971303 57.56525395 -27.59649467 54.51754761 C-28.23462072 52.32289872 -28.87152161 50.12789691 -29.50831604 47.93286133 C-31.28768398 41.80796744 -33.08108618 35.68926302 -34.96582031 29.59570312 C-35.25232452 28.66590637 -35.53882874 27.73610962 -35.83401489 26.77813721 C-36.34250189 25.13897328 -36.85792643 23.50193363 -37.38253784 21.86785889 C-38.64843322 17.79083056 -39.25397698 14.26983083 -39 10 C-34.25200912 8.56710445 -29.50144091 7.14322751 -24.74829102 5.72753906 C-23.13264708 5.24496726 -21.51772693 4.75996516 -19.90356445 4.27246094 C-17.57951169 3.57102216 -15.25297219 2.87844531 -12.92578125 2.1875 C-12.20787918 1.96876221 -11.48997711 1.75002441 -10.75032043 1.5246582 C-7.07393441 0.44276796 -3.83855081 -0.26179375 0 0 Z M-22 18 C-22.46226472 21.23585302 -22.63276496 23.08249081 -20.75 25.8125 C-18.68750526 27.21205 -17.50503771 27.85264484 -15 28 C-12.19640473 27.1349293 -12.19640473 27.1349293 -10 25 C-8.75161619 21.59471004 -8.75161619 21.59471004 -9 18 C-10.47993156 15.43661311 -10.47993156 15.43661311 -13 14 C-17.41649866 13.11670027 -19.43546395 14.39065297 -22 18 Z " fill="#26266C" transform="translate(62,364)"/>
<path d="M0 0 C24.09 0 48.18 0 73 0 C73 23.76 73 47.52 73 72 C48.91 72 24.82 72 0 72 C0 48.24 0 24.48 0 0 Z " fill="#FD5C6F" transform="translate(417,140)"/>
<path d="M0 0 C11.1785545 9.71762741 20.01536914 24.23637888 21.34423828 39.22241211 C22.06197358 55.39247784 20.64444483 70.04199944 11.125 83.75 C10.135 84.41 9.145 85.07 8.125 85.75 C7.7125 85.04875 7.3 84.3475 6.875 83.625 C0.25374626 72.747226 -6.38706868 66.32502549 -17.875 60.75 C-17.46507812 59.91597656 -17.05515625 59.08195312 -16.6328125 58.22265625 C-10.69185351 45.81486391 -7.02098925 33.60404185 -11.4375 19.9375 C-15.12518034 11.07933079 -21.11122487 5.52441701 -29.875 1.75 C-36.93706666 -0.57422447 -46.07194403 -0.45533096 -52.875 2.5 C-54.22433697 3.22081032 -55.55985864 3.96853919 -56.875 4.75 C-57.926875 5.306875 -58.97875 5.86375 -60.0625 6.4375 C-66.74745394 11.93401768 -70.24586309 19.32021936 -71.625 27.75 C-72.55778697 38.22185369 -70.23919895 47.29064865 -65.01953125 56.32421875 C-63.875 58.75 -63.875 58.75 -64.875 61.75 C-67.09765625 63.0390625 -67.09765625 63.0390625 -69.9375 64.375 C-79.14348279 69.21082754 -84.35948707 76.56700976 -88.875 85.75 C-89.535 85.75 -90.195 85.75 -90.875 85.75 C-100.87715287 72.31853757 -104.43157898 56.22249705 -102.875 39.75 C-100.08710427 21.51698323 -90.82573506 7.45938582 -76.5 -3.6875 C-52.87016537 -19.90140935 -22.24970696 -17.12460204 0 0 Z " fill="#26266C" transform="translate(309.875,181.25)"/>
<path d="M0 0 C0.79083984 0.00974854 1.58167969 0.01949707 2.39648438 0.02954102 C12.90130148 0.34783611 19.33490612 3.80919596 26.92578125 11.06640625 C34.98388048 19.75426812 36.70946295 28.65208292 36.4375 40.23046875 C35.92929387 49.7572161 31.17483442 57.64293193 24.34765625 64.125 C15.39871161 71.44520012 5.48906731 73.55830065 -5.875 72.4375 C-14.99374022 71.05830728 -22.7137004 66.14010687 -28.796875 59.265625 C-35.25348176 50.25194626 -37.04758468 40.37284026 -35.875 29.4375 C-33.41247763 18.78048229 -27.86610597 11.64397118 -19.4140625 4.98046875 C-13.13573461 1.16517719 -7.29759941 -0.10083444 0 0 Z " fill="#FD5B6F" transform="translate(268.875,-0.4375)"/>
<path d="M0 0 C3.94209538 1.31403179 4.30057532 2.78856653 6.30078125 6.37890625 C7.26153564 8.08469849 7.26153564 8.08469849 8.24169922 9.82495117 C8.9319672 11.0708002 9.6222341 12.31664982 10.3125 13.5625 C11.3905375 15.48352324 12.47191252 17.40264439 13.55328369 19.3217926 C14.28951861 20.62915439 15.02465686 21.93713434 15.75872803 23.24571228 C19.23062476 29.43218925 22.79035465 35.56570626 26.375 41.6875 C26.94404053 42.66227295 27.51308105 43.6370459 28.09936523 44.64135742 C30.74648428 49.17131625 33.40743339 53.69238745 36.09375 58.19921875 C36.56635254 58.99432861 37.03895508 59.78943848 37.52587891 60.60864258 C38.39918776 62.075694 39.27622884 63.5405328 40.15771484 65.00268555 C43 69.77794241 43 69.77794241 43 72 C15.28 72 -12.44 72 -41 72 C-30.512706 52.77329434 -19.7575335 33.72103284 -8.66455078 14.83740234 C-5.76649789 9.89736557 -2.88372912 4.94840771 0 0 Z " fill="#FD5B6F" transform="translate(84,140)"/>
<path d="M0 0 C1.13501953 0.43441406 2.27003906 0.86882813 3.43945312 1.31640625 C4.52033203 1.74566406 5.60121094 2.17492188 6.71484375 2.6171875 C7.69445068 3.00245605 8.67405762 3.38772461 9.68334961 3.78466797 C12.38870352 5.30877192 13.12923184 6.19687548 14.0625 9.125 C13.77769415 16.18976736 11.52923969 22.64190647 9.3125 29.3125 C8.97734375 30.37919922 8.6421875 31.44589844 8.296875 32.54492188 C4.973549 42.60931254 4.973549 42.60931254 0.0625 46.125 C-3.45705419 46.125 -5.78670059 45.75608355 -8.875 44.0625 C-11.27765898 39.68118068 -10.15584537 34.93145568 -8.91796875 30.359375 C-8.59441406 29.29203125 -8.27085937 28.2246875 -7.9375 27.125 C-24.35704194 35.77146092 -38.5978846 46.23393892 -51.9375 59.125 C-52.73671875 59.88425781 -53.5359375 60.64351563 -54.359375 61.42578125 C-59.29002544 66.21191263 -63.6072916 71.29572908 -67.796875 76.7421875 C-70.03611846 79.23477602 -71.90093726 80.71980773 -74.9375 82.125 C-78.625 81.5 -78.625 81.5 -81.9375 80.125 C-84.33739427 76.5251586 -84.57886132 75.37401872 -83.9375 71.125 C-82.3072592 68.1615538 -80.1198164 65.69701576 -77.9375 63.125 C-77.07741161 62.06959138 -76.21809339 61.01355485 -75.359375 59.95703125 C-58.71470821 39.74952148 -38.60069385 24.94990815 -15.9375 12.125 C-16.63617188 11.78726563 -17.33484375 11.44953125 -18.0546875 11.1015625 C-18.96476562 10.65554687 -19.87484375 10.20953125 -20.8125 9.75 C-21.71742188 9.30914062 -22.62234375 8.86828125 -23.5546875 8.4140625 C-25.9375 7.125 -25.9375 7.125 -27.9375 5.125 C-28.50583559 -2.03602842 -28.50583559 -2.03602842 -26.625 -4.8125 C-18.96244445 -9.63707201 -7.5049954 -2.99501271 0 0 Z " fill="#FD5B6F" transform="translate(192.9375,37.875)"/>
<path d="M0 0 C1.10875488 0.53471924 2.21750977 1.06943848 3.35986328 1.62036133 C17.52858691 8.61063316 30.37691719 17.27019327 42.25 27.6875 C43.12140625 28.44933594 43.9928125 29.21117187 44.890625 29.99609375 C49.84752561 34.39645612 54.63246977 38.93236126 59.25 43.6875 C59.34796875 42.93984375 59.4459375 42.1921875 59.546875 41.421875 C60.7528133 33.47931586 60.7528133 33.47931586 62.9375 30 C66.29552779 28.09409233 68.46014702 28.07841649 72.25 28.6875 C74.6875 30.625 74.6875 30.625 76.25 33.6875 C76.50953847 40.48208416 75.98914186 47.1727732 75.375 53.9375 C75.29636719 54.90429688 75.21773438 55.87109375 75.13671875 56.8671875 C75.01103516 58.27097656 75.01103516 58.27097656 74.8828125 59.703125 C74.80949707 60.54133789 74.73618164 61.37955078 74.66064453 62.24316406 C73.9832773 66.27515023 73.28135524 68.84023341 70.0546875 71.4909668 C66.59827621 72.9655378 64.12521004 72.9724121 60.375 72.83203125 C59.06015625 72.78626953 57.7453125 72.74050781 56.390625 72.69335938 C55.3706543 72.64538208 55.3706543 72.64538208 54.33007812 72.59643555 C52.2567741 72.50031406 50.18384505 72.43086038 48.109375 72.36523438 C34.38270482 71.82020482 34.38270482 71.82020482 30.25 67.6875 C29.56818182 60.64204545 29.56818182 60.64204545 31.8515625 57.4453125 C35.05114755 55.10033974 37.07781224 55.28061249 41 55.4375 C42.17046875 55.47359375 43.3409375 55.5096875 44.546875 55.546875 C45.43890625 55.59328125 46.3309375 55.6396875 47.25 55.6875 C31.44407046 35.48443216 8.10187798 22.36428869 -14.53173828 11.33154297 C-15.43005371 10.89084473 -16.32836914 10.45014648 -17.25390625 9.99609375 C-18.47509155 9.40332642 -18.47509155 9.40332642 -19.72094727 8.79858398 C-21.75 7.6875 -21.75 7.6875 -23.75 5.6875 C-24.31833559 -1.47352842 -24.31833559 -1.47352842 -22.4375 -4.25 C-15.04874358 -8.90217997 -6.88120632 -3.32262188 0 0 Z " fill="#FD5B6F" transform="translate(355.75,47.3125)"/>
<path d="M0 0 C1.72573242 -0.0299707 1.72573242 -0.0299707 3.48632812 -0.06054688 C12.59539071 -0.05538593 20.15700438 1.611333 27.875 6.5625 C32.90597038 11.94446832 36.67857736 18.27859398 38.5625 25.4375 C24.10975195 37.80735201 6.87728232 39.84315697 -11.4375 38.4375 C-21.05950831 36.98257262 -30.79863719 32.41348111 -38.4375 26.4375 C-37.7401457 17.37189404 -32.63650932 11.13868266 -26.20703125 5.1640625 C-18.09611724 0.10761117 -9.31650212 -0.05722028 0 0 Z " fill="#26266C" transform="translate(269.4375,252.5625)"/>
<path d="M0 0 C3.58298006 3.07112577 6.12179621 5.74038863 7.625 10.25 C8.39762887 20.69948884 8.06539901 29.75792754 1.25 38.1875 C-3.03725182 41.556055 -6.27249734 43.56645598 -11.8125 43.3125 C-16.93458935 42.49331063 -20.15556034 40.27220903 -23.375 36.25 C-27.91410097 28.39970076 -29.25743407 20.23822132 -28.375 11.25 C-26.81150843 5.66475602 -23.9154848 2.35100685 -19.15625 -0.83984375 C-13.03560747 -3.96727733 -5.94374727 -3.08194303 0 0 Z " fill="#27276D" transform="translate(279.375,196.75)"/>
</svg>
